name rise49.5252peak65.1548fall88.8305.mot
datacolumns 19
datarows 26
range 8.18330200000000 8.22496600000000
endheader
time	ground_force1_vx	ground_force1_vy	ground_force1_vz	ground_force1_px	ground_force1_py	ground_force1_pz	ground_force2_vx	ground_force2_vy	ground_force2_vz	ground_force2_px	ground_force2_py	ground_force2_pz	ground_torque1_x	ground_torque1_y	ground_torque1_z	ground_torque2_x	ground_torque2_y	ground_torque2_z	
8.18330200000000	-44.53531100000000	817.67766700000004	54.43373100000000	0.17190200000000	0.00000000000000	0.10191600000000	-8.51943600000000	26.72050600000000	7.51268800000000	0.42328000000000	0.00000000000000	-0.06804100000000	0.00000000000000	26.00425900000000	0.00000000000000	0.00000000000000	5.43911700000000	0.00000000000000	
8.18496700000000	-44.90740500000000	815.11088900000004	54.29254200000000	0.17106400000000	0.00000000000000	0.10188600000000	-10.00840300000000	32.55162500000000	8.92796700000000	0.42051600000000	0.00000000000000	-0.06921600000000	0.00000000000000	25.89999700000000	0.00000000000000	0.00000000000000	6.43799100000000	0.00000000000000	
8.18662600000000	-45.30110600000000	812.43351900000005	54.12874200000000	0.17021000000000	0.00000000000000	0.10185500000000	-11.42115800000000	38.53504600000000	10.30911600000000	0.41808100000000	0.00000000000000	-0.07031400000000	0.00000000000000	25.79391600000000	0.00000000000000	0.00000000000000	7.40944200000000	0.00000000000000	
8.18829900000000	-45.71656700000000	809.64615600000002	53.94217500000000	0.16934300000000	0.00000000000000	0.10182400000000	-12.70946000000000	44.54780400000000	11.61541200000000	0.41596000000000	0.00000000000000	-0.07134000000000	0.00000000000000	25.68622700000000	0.00000000000000	0.00000000000000	8.32680400000000	0.00000000000000	
8.18996100000000	-46.15386700000000	806.74934199999996	53.73272300000000	0.16846500000000	0.00000000000000	0.10179100000000	-13.83310500000000	50.48218200000000	12.81223700000000	0.41413800000000	0.00000000000000	-0.07230300000000	0.00000000000000	25.57714100000000	0.00000000000000	0.00000000000000	9.16795900000000	0.00000000000000	
8.19162700000000	-46.61300300000000	803.74356200000000	53.50030800000000	0.16757500000000	0.00000000000000	0.10175700000000	-14.76209400000000	56.25255100000000	13.87301600000000	0.41260100000000	0.00000000000000	-0.07320600000000	0.00000000000000	25.46686500000000	0.00000000000000	0.00000000000000	9.91648600000000	0.00000000000000	
8.19329500000000	-47.09389500000000	800.62923699999999	53.24488500000000	0.16667700000000	0.00000000000000	0.10172200000000	-15.47768400000000	61.79945200000000	14.78022900000000	0.41133300000000	0.00000000000000	-0.07405400000000	0.00000000000000	25.35560100000000	0.00000000000000	0.00000000000000	10.56218600000000	0.00000000000000	
8.19496600000000	-47.59638400000000	797.40671699999996	52.96644900000000	0.16577200000000	0.00000000000000	0.10168600000000	-15.97234700000000	67.09089000000000	15.52552700000000	0.41032300000000	0.00000000000000	-0.07485300000000	0.00000000000000	25.24354900000000	0.00000000000000	0.00000000000000	11.10102800000000	0.00000000000000	
8.19662700000000	-48.12022800000000	794.07627800000000	52.66503100000000	0.16486200000000	0.00000000000000	0.10164800000000	-16.24883300000000	72.12115600000000	16.10908200000000	0.40955500000000	0.00000000000000	-0.07560500000000	0.00000000000000	25.13089700000000	0.00000000000000	0.00000000000000	11.53459600000000	0.00000000000000	
8.19829500000000	-48.66510300000000	790.63811899999996	52.34069600000000	0.16394700000000	0.00000000000000	0.10160800000000	-16.31853000000000	76.90768300000001	16.53833700000000	0.40901600000000	0.00000000000000	-0.07631500000000	0.00000000000000	25.01782600000000	0.00000000000000	0.00000000000000	11.86918300000000	0.00000000000000	
8.19996500000000	-49.23060200000000	787.09235899999999	51.99354700000000	0.16303100000000	0.00000000000000	0.10156600000000	-16.19941000000000	81.48653700000000	16.82638500000000	0.40869400000000	0.00000000000000	-0.07698500000000	0.00000000000000	24.90450500000000	0.00000000000000	0.00000000000000	12.11465400000000	0.00000000000000	
8.20162600000000	-49.81623500000000	783.43903299999999	51.62371700000000	0.16211400000000	0.00000000000000	0.10152300000000	-15.91377800000000	85.90714199999999	16.99015300000000	0.40857500000000	0.00000000000000	-0.07761800000000	0.00000000000000	24.79109200000000	0.00000000000000	0.00000000000000	12.28321900000000	0.00000000000000	
8.20329700000000	-50.42142600000000	779.67809299999999	51.23137700000000	0.16119900000000	0.00000000000000	0.10147700000000	-15.48605600000000	90.22683000000001	17.04859100000000	0.40864600000000	0.00000000000000	-0.07821700000000	0.00000000000000	24.67772800000000	0.00000000000000	0.00000000000000	12.38822300000000	0.00000000000000	
8.20496400000000	-51.04551800000000	775.80940299999997	50.81672900000000	0.16028800000000	0.00000000000000	0.10142900000000	-14.94077600000000	94.50566000000001	17.02100600000000	0.40889600000000	0.00000000000000	-0.07878400000000	0.00000000000000	24.56454300000000	0.00000000000000	0.00000000000000	12.44305300000000	0.00000000000000	
8.20663300000000	-51.68776300000000	771.83274300000005	50.38000700000000	0.15938100000000	0.00000000000000	0.10137900000000	-14.30090200000000	98.80190500000000	16.92564700000000	0.40931000000000	0.00000000000000	-0.07932200000000	0.00000000000000	24.45164400000000	0.00000000000000	0.00000000000000	12.46021200000000	0.00000000000000	
8.20830200000000	-52.34733400000000	767.74780899999996	49.92147600000000	0.15848100000000	0.00000000000000	0.10132600000000	-13.58655900000000	103.16841400000000	16.77861900000000	0.40987800000000	0.00000000000000	-0.07983100000000	0.00000000000000	24.33912500000000	0.00000000000000	0.00000000000000	12.45062000000000	0.00000000000000	
8.20996500000000	-53.02331500000000	763.55420800000002	49.44143200000000	0.15759000000000	0.00000000000000	0.10127000000000	-12.81419500000000	107.64999700000000	16.59313600000000	0.41058600000000	0.00000000000000	-0.08031500000000	0.00000000000000	24.22705700000000	0.00000000000000	0.00000000000000	12.42313900000000	0.00000000000000	
8.21162900000000	-53.71470400000000	759.25146700000005	48.94019800000000	0.15670800000000	0.00000000000000	0.10121200000000	-11.99616600000000	112.28185100000000	16.37912800000000	0.41142400000000	0.00000000000000	-0.08077500000000	0.00000000000000	24.11549200000000	0.00000000000000	0.00000000000000	12.38432800000000	0.00000000000000	
8.21329600000000	-54.42041600000000	754.83903399999997	48.41812700000000	0.15583800000000	0.00000000000000	0.10115100000000	-11.14070100000000	117.08894700000000	16.14316000000000	0.41238000000000	0.00000000000000	-0.08121200000000	0.00000000000000	24.00445900000000	0.00000000000000	0.00000000000000	12.33839800000000	0.00000000000000	
8.21496200000000	-55.13928000000000	750.31627500000002	47.87560100000000	0.15498100000000	0.00000000000000	0.10108700000000	-10.25217400000000	122.08625600000001	15.88861100000000	0.41344200000000	0.00000000000000	-0.08162800000000	0.00000000000000	23.89396600000000	0.00000000000000	0.00000000000000	12.28734900000000	0.00000000000000	
8.21663500000000	-55.87004100000000	745.68248600000004	47.31302500000000	0.15413800000000	0.00000000000000	0.10102000000000	-9.33161700000000	127.27964900000001	15.61605900000000	0.41460000000000	0.00000000000000	-0.08202400000000	0.00000000000000	23.78399700000000	0.00000000000000	0.00000000000000	12.23122600000000	0.00000000000000	
8.21829600000000	-56.61136200000000	740.93689099999995	46.73083200000000	0.15331000000000	0.00000000000000	0.10094900000000	-8.37738600000000	132.66726700000001	15.32379700000000	0.41584200000000	0.00000000000000	-0.08240200000000	0.00000000000000	23.67451100000000	0.00000000000000	0.00000000000000	12.16847600000000	0.00000000000000	
8.21996100000000	-57.36182200000000	736.07865100000004	46.12948000000000	0.15249900000000	0.00000000000000	0.10087600000000	-7.38590100000000	138.24118400000000	15.00843200000000	0.41715800000000	0.00000000000000	-0.08276300000000	0.00000000000000	23.56544700000000	0.00000000000000	0.00000000000000	12.09635300000000	0.00000000000000	
8.22162700000000	-58.11992000000000	731.10686599999997	45.50945000000000	0.15170700000000	0.00000000000000	0.10079900000000	-6.35239300000000	143.98917000000000	14.66548500000000	0.41853800000000	0.00000000000000	-0.08310700000000	0.00000000000000	23.45671500000000	0.00000000000000	0.00000000000000	12.01132500000000	0.00000000000000	
8.22329300000000	-58.88407600000000	726.02058599999998	44.87124600000000	0.15093200000000	0.00000000000000	0.10071800000000	-5.27160600000000	149.89641700000001	14.28997400000000	0.41997200000000	0.00000000000000	-0.08343700000000	0.00000000000000	23.34820500000000	0.00000000000000	0.00000000000000	11.90947400000000	0.00000000000000	
8.22496600000000	-59.65263200000000	720.81881599999997	44.21539600000000	0.15017800000000	0.00000000000000	0.10063500000000	-4.13840500000000	155.94710200000000	13.87691400000000	0.42145000000000	0.00000000000000	-0.08375200000000	0.00000000000000	23.23978000000000	0.00000000000000	0.00000000000000	11.78684500000000	0.00000000000000	
